<?xml version="1.0" encoding="UTF-8" standalone="no"?>
<svg
   xmlns:dc="http://purl.org/dc/elements/1.1/"
   xmlns:cc="http://creativecommons.org/ns#"
   xmlns:rdf="http://www.w3.org/1999/02/22-rdf-syntax-ns#"
   xmlns:svg="http://www.w3.org/2000/svg"
   xmlns="http://www.w3.org/2000/svg"
   viewBox="0 0 117.77946 134.66667"
   height="134.66667"
   width="117.77946"
   xml:space="preserve"
   id="svg2"
   version="1.1"><metadata
     id="metadata8"><rdf:RDF><cc:Work
         rdf:about=""><dc:format>image/svg+xml</dc:format><dc:type
           rdf:resource="http://purl.org/dc/dcmitype/StillImage" /></cc:Work></rdf:RDF></metadata><defs
     id="defs6"><clipPath
       id="clipPath18"
       clipPathUnits="userSpaceOnUse"><path
         style="clip-rule:evenodd"
         id="path16"
         d="M 44.167297,101 88.334595,75.75 V 25.25 L 44.167297,0 0,25.25 v 50.5 z" /></clipPath><clipPath
       id="clipPath30"
       clipPathUnits="userSpaceOnUse"><path
         style="clip-rule:evenodd"
         id="path28"
         d="M 44.167297,81 71.014084,65.75 V 35.25 L 44.167297,20 17.320509,35.25 v 30.5 z" /></clipPath></defs><g
     transform="matrix(1.3333333,0,0,-1.3333333,0,134.66667)"
     id="g10"><g
       id="g12"><g
         clip-path="url(#clipPath18)"
         id="g14"><g
           transform="translate(-6.832703)"
           id="g20"><path
             id="path22"
             style="fill:#040000;fill-opacity:1;fill-rule:nonzero;stroke:none"
             d="m 51,101 3.970478,6.94516 L 51,110.21505 47.029522,107.94516 Z M 95.167297,75.75 h 8.000003 v 4.641525 l -4.029521,2.303635 z m 0,-50.5 3.970482,-6.94516 4.029521,2.303635 V 25.25 Z M 51,0 47.029522,-6.94516 51,-9.21505 54.970478,-6.94516 Z M 6.832703,25.25 h -8 v -4.641525 l 4.02952,-2.303635 z m 0,50.5 -3.97048,6.94516 -4.02952,-2.303635 V 75.75 Z m 40.196819,18.30484 44.167293,-25.25 7.940964,13.89032 -44.167301,25.25 z M 87.167297,75.75 V 25.25 H 103.1673 v 50.5 z m 4.029518,-43.55484 -44.167293,-25.25 7.940956,-13.89032 44.167301,25.25 z m -36.226337,-25.25 -44.167295,25.25 -7.94096,-13.89032 44.167299,-25.25 z M 14.832703,25.25 v 50.5 h -16 v -50.5 z m -4.02952,43.55484 44.167295,25.25 -7.940956,13.89032 -44.167299,-25.25 z" /></g></g></g><g
       id="g24"><g
         clip-path="url(#clipPath30)"
         id="g26"><g
           transform="translate(13.167297,20)"
           id="g32"><path
             id="path34"
             style="fill:#000000;fill-opacity:1;fill-rule:nonzero;stroke:none"
             d="M 31,61 34.951321,67.956085 31,70.200584 27.048679,67.956085 Z M 57.846786,45.75 h 8 v 4.656277 l -4.048679,2.299804 z m 0,-30.5 3.951321,-6.956081 4.048679,2.299804 V 15.25 Z M 31,0 27.048679,-6.956085 31,-9.200584 34.951321,-6.956085 Z M 4.153212,15.25 h -8 v -4.656277 l 4.04868,-2.299804 z m 0,30.5 -3.95132,6.956081 -4.04868,-2.299804 V 45.75 Z m 22.895467,8.293919 26.846787,-15.25 7.902641,13.912162 -26.846786,15.250004 z M 49.846786,45.75 v -30.5 h 16 v 30.5 z m 4.04868,-23.543919 -26.846787,-15.25 7.902642,-13.912166 26.846786,15.250004 z m -18.944145,-15.25 -26.84679,15.25 L 0.201892,8.293919 27.048679,-6.956085 Z M 12.153212,15.25 v 30.5 h -16 v -30.5 z m -4.048681,23.543919 26.84679,15.25 L 27.048679,67.956085 0.201892,52.706081 Z" /></g></g></g><g
       transform="rotate(150.94538,29.651011,38.325843)"
       id="g36"><path
         id="path38"
         style="fill:#040000;fill-opacity:1;fill-rule:nonzero;stroke:none"
         d="m -0.016654,16.506037 27.584523,-0.114851 0.03331,7.999929 -27.584525,0.114853 z" /></g><g
       transform="rotate(-90,46.083649,25.916351)"
       id="g40"><path
         id="path42"
         style="fill:#040000;fill-opacity:1;fill-rule:nonzero;stroke:none"
         d="m 0,20 h 20 v 8 H 0 Z" /></g><g
       transform="rotate(27.758525,-27.694992,78.87476)"
       id="g44"><path
         id="path46"
         style="fill:#040000;fill-opacity:1;fill-rule:nonzero;stroke:none"
         d="m 0.116389,15.849599 27.385888,0.797194 -0.23278,7.996613 -27.385886,-0.797194 z" /></g><g
       transform="rotate(30.465545,-43.726685,161.27729)"
       id="g48"><path
         id="path50"
         style="fill:#040000;fill-opacity:1;fill-rule:nonzero;stroke:none"
         d="m 0,16.895473 h 19.723082 v 8 H 0 Z" /></g><g
       transform="matrix(-0.861934,0.50702,0.50702,0.861934,9.600952,46.437214)"
       id="g52"><path
         id="path54"
         style="fill:#040000;fill-opacity:1;fill-rule:nonzero;stroke:none"
         d="m 0,16.895473 h 19.723082 v 8 H 0 Z" /></g><g
       transform="rotate(-90,23.583649,0.4163515)"
       id="g56"><path
         id="path58"
         style="fill:#040000;fill-opacity:1;fill-rule:nonzero;stroke:none"
         d="m 0,17 h 17 v 8 H 0 Z" /></g></g></svg>